{"asset":{"version":"2.0","generator":"Blockbench 4.12.4 glTF exporter"},"scenes":[{"nodes":[6],"name":"blockbench_export"}],"scene":0,"nodes":[{"translation":[0.001953125,3.251873125,-0.20139875],"name":"hat","mesh":0},{"translation":[0,1.5625,0],"name":"cone","mesh":1},{"rotation":[0,0,-1,6.123233995736766e-17],"translation":[0.25,0.6306818181818182,-3.5088724854985415e-17],"name":"leg","mesh":2},{"rotation":[0,0,-1,6.123233995736766e-17],"translation":[-0.25,0.6306818181818182,-3.5088724854985415e-17],"name":"leg2","mesh":3},{"rotation":[0,0,0.10886687485196457,0.9940563382223196],"translation":[-1.5,2.125,0],"name":"arm2","mesh":4},{"rotation":[0,0,-0.10886687485196457,0.9940563382223196],"translation":[1.5,2.1875,0],"name":"arm1","mesh":5},{"children":[0,1,2,3,4,5]}],"bufferViews":[{"buffer":0,"byteOffset":0,"byteLength":12888,"target":34962,"byteStride":12},{"buffer":0,"byteOffset":12888,"byteLength":12888,"target":34962,"byteStride":12},{"buffer":0,"byteOffset":25776,"byteLength":8592,"target":34962,"byteStride":8},{"buffer":0,"byteOffset":34368,"byteLength":216,"target":34963},{"buffer":0,"byteOffset":34584,"byteLength":1188,"target":34963},{"buffer":0,"byteOffset":35772,"byteLength":1440,"target":34963},{"buffer":0,"byteOffset":37212,"byteLength":864,"target":34962,"byteStride":12},{"buffer":0,"byteOffset":38076,"byteLength":864,"target":34962,"byteStride":12},{"buffer":0,"byteOffset":38940,"byteLength":576,"target":34962,"byteStride":8},{"buffer":0,"byteOffset":39516,"byteLength":144,"target":34963},{"buffer":0,"byteOffset":39660,"byteLength":7776,"target":34962,"byteStride":12},{"buffer":0,"byteOffset":47436,"byteLength":7776,"target":34962,"byteStride":12},{"buffer":0,"byteOffset":55212,"byteLength":5184,"target":34962,"byteStride":8},{"buffer":0,"byteOffset":60396,"byteLength":1728,"target":34963},{"buffer":0,"byteOffset":62124,"byteLength":7776,"target":34962,"byteStride":12},{"buffer":0,"byteOffset":69900,"byteLength":7776,"target":34962,"byteStride":12},{"buffer":0,"byteOffset":77676,"byteLength":5184,"target":34962,"byteStride":8},{"buffer":0,"byteOffset":82860,"byteLength":1728,"target":34963},{"buffer":0,"byteOffset":84588,"byteLength":7776,"target":34962,"byteStride":12},{"buffer":0,"byteOffset":92364,"byteLength":7776,"target":34962,"byteStride":12},{"buffer":0,"byteOffset":100140,"byteLength":5184,"target":34962,"byteStride":8},{"buffer":0,"byteOffset":105324,"byteLength":1728,"target":34963},{"buffer":0,"byteOffset":107052,"byteLength":7776,"target":34962,"byteStride":12},{"buffer":0,"byteOffset":114828,"byteLength":7776,"target":34962,"byteStride":12},{"buffer":0,"byteOffset":122604,"byteLength":5184,"target":34962,"byteStride":8},{"buffer":0,"byteOffset":127788,"byteLength":1728,"target":34963}],"buffers":[{"byteLength":129516,"uri":"data:application/octet-stream;base64,"}],"accessors":[{"bufferView":0,"componentType":5126,"count":1074,"max":[0.6501849889755249,1.3402762413024902,0.7509644031524658],"min":[-0.6229981184005737,-0.5332568883895874,-0.37403562664985657],"type":"VEC3"},{"bufferView":1,"componentType":5126,"count":1074,"max":[1,1,0.9914449453353882],"min":[-0.988438069820404,-1,-0.9914449453353882],"type":"VEC3"},{"bufferView":2,"componentType":5126,"count":1074,"max":[0.734375,0.6959656476974487],"min":[0,0],"type":"VEC2"},{"bufferView":3,"componentType":5123,"count":108,"max":[107],"min":[0],"type":"SCALAR"},{"bufferView":4,"componentType":5123,"count":594,"max":[545],"min":[108],"type":"SCALAR"},{"bufferView":5,"componentType":5123,"count":720,"max":[1073],"min":[546],"type":"SCALAR"},{"bufferView":6,"componentType":5126,"count":72,"max":[0.6875,1.625,0.625],"min":[-0.6875,-0.125,-0.625],"type":"VEC3"},{"bufferView":7,"componentType":5126,"count":72,"max":[0.9307515025138855,0.3656523823738098,0.941741943359375],"min":[-0.9307515025138855,-1,-0.941741943359375],"type":"VEC3"},{"bufferView":8,"componentType":5126,"count":72,"max":[0.75,0.9544249773025513],"min":[0.005738593637943268,0],"type":"VEC2"},{"bufferView":9,"componentType":5123,"count":72,"max":[71],"min":[0],"type":"SCALAR"},{"bufferView":10,"componentType":5126,"count":648,"max":[0.1875,0.6306818127632141,0.1875],"min":[-0.1875,-1.1931818723678589,-0.5625],"type":"VEC3"},{"bufferView":11,"componentType":5126,"count":648,"max":[1,1,1],"min":[-1,-1,-1],"type":"VEC3"},{"bufferView":12,"componentType":5126,"count":648,"max":[0.5176382064819336,0.5176382064819336],"min":[0,0],"type":"VEC2"},{"bufferView":13,"componentType":5123,"count":864,"max":[647],"min":[0],"type":"SCALAR"},{"bufferView":14,"componentType":5126,"count":648,"max":[0.1875,0.6306818127632141,0.1875],"min":[-0.1875,-1.1931818723678589,-0.5625],"type":"VEC3"},{"bufferView":15,"componentType":5126,"count":648,"max":[1,1,1],"min":[-1,-1,-1],"type":"VEC3"},{"bufferView":16,"componentType":5126,"count":648,"max":[0.984375,0.734375],"min":[0.015625,0.015625],"type":"VEC2"},{"bufferView":17,"componentType":5123,"count":864,"max":[647],"min":[0],"type":"SCALAR"},{"bufferView":18,"componentType":5126,"count":648,"max":[1.3603569269180298,0.13577187061309814,0.125],"min":[-0.1875,-0.125,-0.125],"type":"VEC3"},{"bufferView":19,"componentType":5126,"count":648,"max":[0.9990482330322266,0.9997296333312988,1],"min":[-0.9990482330322266,-0.9997296333312988,-1],"type":"VEC3"},{"bufferView":20,"componentType":5126,"count":648,"max":[0.7878274321556091,0.83984375],"min":[0.0002709431864786893,0],"type":"VEC2"},{"bufferView":21,"componentType":5123,"count":864,"max":[647],"min":[0],"type":"SCALAR"},{"bufferView":22,"componentType":5126,"count":648,"max":[0.1875,0.125,0.125],"min":[-1.3468294143676758,-0.125,-0.125],"type":"VEC3"},{"bufferView":23,"componentType":5126,"count":648,"max":[0.9990482330322266,0.9997296333312988,1],"min":[-0.9990482330322266,-0.9997296333312988,-1],"type":"VEC3"},{"bufferView":24,"componentType":5126,"count":648,"max":[0.984375,0.734375],"min":[0.015625,0.015625],"type":"VEC2"},{"bufferView":25,"componentType":5123,"count":864,"max":[647],"min":[0],"type":"SCALAR"}],"materials":[{"pbrMetallicRoughness":{"metallicFactor":0,"roughnessFactor":1,"baseColorTexture":{"index":0}},"alphaMode":"MASK","alphaCutoff":0.05,"doubleSided":true},{"pbrMetallicRoughness":{"metallicFactor":0,"roughnessFactor":1,"baseColorTexture":{"index":1}},"alphaMode":"MASK","alphaCutoff":0.05,"doubleSided":true},{"pbrMetallicRoughness":{"metallicFactor":0,"roughnessFactor":1},"alphaMode":"MASK","alphaCutoff":0.05,"doubleSided":true},{"pbrMetallicRoughness":{"metallicFactor":0,"roughnessFactor":1,"baseColorTexture":{"index":2}},"alphaMode":"MASK","alphaCutoff":0.05,"doubleSided":true},{"pbrMetallicRoughness":{"metallicFactor":0,"roughnessFactor":1,"baseColorTexture":{"index":3}},"alphaMode":"MASK","alphaCutoff":0.05,"doubleSided":true},{"pbrMetallicRoughness":{"metallicFactor":0,"roughnessFactor":1,"baseColorTexture":{"index":4}},"alphaMode":"MASK","alphaCutoff":0.05,"doubleSided":true},{"pbrMetallicRoughness":{"metallicFactor":0,"roughnessFactor":1,"baseColorTexture":{"index":5}},"alphaMode":"MASK","alphaCutoff":0.05,"doubleSided":true}],"textures":[{"sampler":0,"source":0,"name":"skin-headt2.png"},{"sampler":1,"source":1,"name":"texture"},{"sampler":2,"source":2,"name":"texture.png"},{"sampler":3,"source":3,"name":"texture"},{"sampler":4,"source":4,"name":"texture"},{"sampler":5,"source":5,"name":"texture"}],"samplers":[{"magFilter":9728,"minFilter":9728,"wrapS":33071,"wrapT":33071},{"magFilter":9728,"minFilter":9728,"wrapS":33071,"wrapT":33071},{"magFilter":9728,"minFilter":9728,"wrapS":33071,"wrapT":33071},{"magFilter":9728,"minFilter":9728,"wrapS":33071,"wrapT":33071},{"magFilter":9728,"minFilter":9728,"wrapS":33071,"wrapT":33071},{"magFilter":9728,"minFilter":9728,"wrapS":33071,"wrapT":33071}],"images":[{"mimeType":"image/png","uri":"data:image/png;base64,"},{"mimeType":"image/png","uri":"data:image/png;base64,"},{"mimeType":"image/png","uri":"data:image/png;base64,"},{"mimeType":"image/png","uri":"data:image/png;base64,"},{"mimeType":"image/png","uri":"data:image/png;base64,"},{"mimeType":"image/png","uri":"data:image/png;base64,"}],"meshes":[{"primitives":[{"mode":4,"attributes":{"POSITION":0,"NORMAL":1,"TEXCOORD_0":2},"indices":3,"material":0},{"mode":4,"attributes":{"POSITION":0,"NORMAL":1,"TEXCOORD_0":2},"indices":4,"material":1},{"mode":4,"attributes":{"POSITION":0,"NORMAL":1,"TEXCOORD_0":2},"indices":5,"material":2}]},{"primitives":[{"mode":4,"attributes":{"POSITION":6,"NORMAL":7,"TEXCOORD_0":8},"indices":9,"material":3}]},{"primitives":[{"mode":4,"attributes":{"POSITION":10,"NORMAL":11,"TEXCOORD_0":12},"indices":13,"material":4}]},{"primitives":[{"mode":4,"attributes":{"POSITION":14,"NORMAL":15,"TEXCOORD_0":16},"indices":17,"material":4}]},{"primitives":[{"mode":4,"attributes":{"POSITION":18,"NORMAL":19,"TEXCOORD_0":20},"indices":21,"material":5}]},{"primitives":[{"mode":4,"attributes":{"POSITION":22,"NORMAL":23,"TEXCOORD_0":24},"indices":25,"material":6}]}]}